# Alias OBJ Model File
# Exported from SketchUp, (c) 2000-2012 Trimble Navigation Limited
# File units = meters

mtllib Example.mtl

g Mesh1 Model

usemtl example_floor
v -0.867025 0 3
vt -34.1348 -118.11
vn 0 1 -0
v -4.86703 0 -3
vt -191.615 118.11
v -4.86703 0 3
vt -191.615 -118.11
f 1/1/1 2/2/1 3/3/1

v -0.867025 0 -3
vt -34.1348 118.11
f 2/2/1 1/1/1 4/4/1

vn -0 -1 0
f 3/3/2 2/2/2 1/1/2

usemtl example_wall
vt 118.11 0
vn 1 0 -0
v -4.86703 3 3
vt -118.11 118.11
vt -118.11 0
f 2/5/3 5/6/3 3/7/3

v -4.86703 3 -3
vt 118.11 118.11
f 5/6/3 2/5/3 6/8/3

usemtl BackColor
vn -1 -0 0
f 3/7/4 5/6/4 2/5/4

usemtl example_wall
vt 191.615 118.11
vn 0 0 -1
vt 34.1348 0
vt 191.615 0
f 5/9/5 1/10/5 3/11/5

v -0.867025 3 3
vt 34.1348 118.11
f 1/10/5 5/9/5 7/12/5

usemtl BackColor
vn -0 -0 1
f 3/11/6 1/10/6 5/9/6

usemtl example_wall
v -0.567025 0 3.3
vt 22.3238 -129.921
vn 0 -1 -0
vt 191.615 -118.11
vt 34.1348 -118.11
f 8/13/7 3/14/7 1/15/7

v -5.16703 0 3.3
vt 203.426 -129.921
f 9/16/7 3/14/7 8/13/7

f 3/14/7 9/16/7 2/9/7

usemtl BackColor
vn -0 1 0
f 8/13/8 3/14/8 9/16/8

f 1/15/8 3/14/8 8/13/8

usemtl example_wall
v -0.567025 0 -3.3
vt 22.3238 129.921
f 8/13/7 1/15/7 10/17/7

usemtl BackColor
f 10/17/8 1/15/8 8/13/8

usemtl example_wall
f 4/12/7 10/17/7 1/15/7

f 2/9/7 10/17/7 4/12/7

v -5.16703 0 -3.3
vt 203.426 129.921
f 2/9/7 11/18/7 10/17/7

f 11/18/7 2/9/7 9/16/7

usemtl BackColor
f 9/16/8 2/9/8 11/18/8

f 2/9/8 9/16/8 3/14/8

f 10/17/8 11/18/8 2/9/8

usemtl example_wall
vt 203.426 0
v -3.86702 1 -3.3
vt 152.245 39.3701
vt 22.3238 0
f 11/19/5 12/20/5 10/21/5

v -5.16703 3 -3.3
vt 203.426 118.11
f 12/20/5 11/19/5 13/22/5

usemtl BackColor
f 10/21/6 12/20/6 11/19/6

usemtl example_wall
v -1.86703 1 -3.3
vt 73.5049 39.3701
f 14/23/5 10/21/5 12/20/5

v -0.567025 3 -3.3
vt 22.3238 118.11
f 10/21/5 14/23/5 15/24/5

usemtl BackColor
f 15/24/6 14/23/6 10/21/6

usemtl example_wall
v -1.86703 2 -3.3
vt 73.5049 78.7402
f 15/24/5 14/23/5 16/25/5

usemtl BackColor
f 16/25/6 14/23/6 15/24/6

usemtl example_wall
v -1.86703 1 -3.15
vt -124.016 39.3701
vn -1 0 2.40637e-15
vt -129.921 78.7402
vt -129.921 39.3701
f 17/26/9 16/27/9 14/28/9

v -1.86703 2 -3.15
vt -124.016 78.7402
f 16/27/9 17/26/9 18/29/9

usemtl BackColor
vn 1 -0 -2.40637e-15
f 18/29/10 17/26/10 16/27/10

usemtl example_wall
v -1.86703 1 -3
vt -118.11 39.3701
vn -1 0 -0
f 19/30/11 18/29/11 17/26/11

v -1.86703 2 -3
vt -118.11 78.7402
f 18/29/11 19/30/11 20/31/11

usemtl BackColor
vn 1 -0 0
f 20/31/12 19/30/12 18/29/12

usemtl example_wall
vt -73.5049 39.3701
vn 0 0 1
v -0.867025 3 -3
vt -73.5049 78.7402
f 19/32/13 21/4/13 20/33/13

vt -34.1348 0
f 19/32/13 4/34/13 21/4/13

vt -191.615 0
f 4/34/13 19/32/13 2/35/13

usemtl BackColor
vn -0 -0 -1
f 2/35/14 19/32/14 4/34/14

usemtl example_wall
v -3.86702 1 -3
vt -152.245 39.3701
f 22/36/13 2/35/13 19/32/13

f 2/35/13 22/36/13 6/2/13

usemtl BackColor
f 6/2/14 22/36/14 2/35/14

usemtl example_wall
v -3.86702 2 -3
vt -152.245 78.7402
f 6/2/13 22/36/13 23/37/13

usemtl BackColor
f 23/37/14 22/36/14 6/2/14

usemtl example_wall
v -3.86702 1 -3.15
vt 124.016 39.3701
vt 118.11 78.7402
vt 118.11 39.3701
f 24/38/3 23/39/3 22/40/3

v -3.86702 2 -3.15
vt 124.016 78.7402
f 23/39/3 24/38/3 25/41/3

usemtl BackColor
f 22/40/4 23/39/4 24/38/4

f 25/41/4 24/38/4 23/39/4

usemtl example_wall
vt 129.921 39.3701
f 12/42/3 25/41/3 24/38/3

v -3.86702 2 -3.3
vt 129.921 78.7402
f 25/41/3 12/42/3 26/43/3

usemtl BackColor
f 24/38/4 25/41/4 12/42/4

f 26/43/4 12/42/4 25/41/4

usemtl example_wall
vt 152.245 78.7402
f 12/20/5 13/22/5 26/44/5

usemtl BackColor
f 13/22/6 11/19/6 12/20/6

usemtl example_wall
vt 129.921 0
vt -129.921 118.11
vt -129.921 0
f 9/45/11 13/46/11 11/47/11

v -5.16703 3 3.3
vt 129.921 118.11
f 13/46/11 9/45/11 27/48/11

usemtl BackColor
f 27/48/12 9/45/12 13/46/12

usemtl example_wall
vt -203.426 0
v -0.567025 3 3.3
vt -22.3238 118.11
vt -203.426 118.11
f 9/49/13 28/50/13 27/51/13

vt -22.3238 0
f 28/50/13 9/49/13 8/52/13

usemtl BackColor
f 8/52/14 9/49/14 28/50/14

f 27/51/14 28/50/14 9/49/14

usemtl example_wall
vt -203.426 -129.921
vt -22.3238 -129.921
f 5/3/1 27/53/1 28/54/1

vt -203.426 129.921
f 27/53/1 5/3/1 13/55/1

usemtl BackColor
f 13/55/2 5/3/2 27/53/2

usemtl example_wall
f 6/2/1 13/55/1 5/3/1

vt -22.3238 129.921
f 13/55/1 6/2/1 15/56/1

usemtl BackColor
f 15/56/2 6/2/2 13/55/2

usemtl example_wall
f 15/56/1 6/2/1 21/4/1

usemtl BackColor
f 21/4/2 6/2/2 15/56/2

usemtl example_ceiling
f 6/2/1 7/1/1 21/4/1

f 7/1/1 6/2/1 5/3/1

f 5/3/2 6/2/2 7/1/2

usemtl BackColor
f 5/3/2 13/55/2 6/2/2

f 6/8/4 2/5/4 5/6/4

usemtl example_ceiling
f 21/4/2 7/1/2 6/2/2

usemtl example_wall
f 7/1/1 28/54/1 21/4/1

f 5/3/1 28/54/1 7/1/1

usemtl BackColor
f 28/54/2 27/53/2 5/3/2

f 7/1/2 28/54/2 5/3/2

f 21/4/2 28/54/2 7/1/2

usemtl example_wall
f 15/56/1 21/4/1 28/54/1

usemtl BackColor
f 28/54/2 21/4/2 15/56/2

usemtl example_wall
f 28/46/3 10/45/3 15/48/3

f 10/45/3 28/46/3 8/47/3

usemtl BackColor
f 8/47/4 28/46/4 10/45/4

f 15/48/4 10/45/4 28/46/4

usemtl example_wall
f 21/6/11 1/5/11 7/8/11

f 1/5/11 21/6/11 4/7/11

usemtl BackColor
f 7/8/12 1/5/12 21/6/12

f 7/12/6 5/9/6 1/10/6

f 4/7/12 21/6/12 1/5/12

f 21/4/14 4/34/14 19/32/14

f 20/33/14 21/4/14 19/32/14

usemtl example_wall
f 20/33/13 21/4/13 23/37/13

usemtl BackColor
f 23/37/14 21/4/14 20/33/14

usemtl example_wall
f 6/2/13 23/37/13 21/4/13

usemtl BackColor
f 21/4/14 23/37/14 6/2/14

usemtl example_wall
vt 152.245 118.11
vt 73.5049 124.016
vt 73.5049 118.11
f 23/57/7 18/58/7 20/59/7

vt 152.245 124.016
f 18/58/7 23/57/7 25/60/7

usemtl BackColor
f 25/60/8 23/57/8 18/58/8

f 20/59/8 18/58/8 23/57/8

usemtl example_wall
vt 73.5049 129.921
f 25/60/7 16/61/7 18/58/7

vt 152.245 129.921
f 16/61/7 25/60/7 26/62/7

usemtl BackColor
f 26/62/8 25/60/8 16/61/8

f 18/58/8 16/61/8 25/60/8

usemtl example_wall
f 26/44/5 13/22/5 16/25/5

usemtl BackColor
f 26/44/6 13/22/6 12/20/6

f 16/25/6 13/22/6 26/44/6

usemtl example_wall
f 15/24/5 16/25/5 13/22/5

usemtl BackColor
f 13/22/6 16/25/6 15/24/6

usemtl example_floor
f 4/4/2 1/1/2 2/2/2

usemtl BackColor
f 1/15/8 10/17/8 4/12/8

f 4/12/8 10/17/8 2/9/8

f 11/47/12 13/46/12 9/45/12

usemtl example_wall
vt -73.5049 124.016
vt -152.245 129.921
vt -152.245 124.016
f 17/63/1 12/64/1 24/65/1

vt -73.5049 129.921
f 12/64/1 17/63/1 14/66/1

usemtl BackColor
f 24/65/2 12/64/2 17/63/2

f 14/66/2 17/63/2 12/64/2

f 14/28/10 16/27/10 17/26/10

f 12/20/6 10/21/6 14/23/6

usemtl example_wall
vt -73.5049 118.11
f 24/65/1 19/67/1 17/63/1

vt -152.245 118.11
f 19/67/1 24/65/1 22/68/1

usemtl BackColor
f 22/68/2 24/65/2 19/67/2

f 17/63/2 19/67/2 24/65/2

f 17/26/12 18/29/12 19/30/12

f 19/32/14 2/35/14 22/36/14

g Mesh2 Model

usemtl example_ceiling
v 4.81477 3 3.03077
vt 189.558 -119.322
v 0.814774 3 -2.96923
vt 32.0777 116.899
v 0.814774 3 3.03077
vt 32.0777 -119.322
f 29/69/1 30/70/1 31/71/1

v 4.81477 3 -2.96923
vt 189.558 116.899
f 30/70/1 29/69/1 32/72/1

f 31/71/2 30/70/2 29/69/2

usemtl example_wall
v 0.514774 3 -3.26923
vt 20.2667 128.71
f 30/70/1 33/73/1 31/71/1

v 5.11477 3 -3.26923
vt 201.369 128.71
f 33/73/1 30/70/1 34/74/1

usemtl BackColor
f 34/74/2 30/70/2 33/73/2

usemtl example_wall
f 34/74/1 30/70/1 32/72/1

usemtl BackColor
f 32/72/2 30/70/2 34/74/2

usemtl example_ceiling
f 32/72/2 29/69/2 30/70/2

usemtl example_wall
v 5.11477 3 3.33077
vt 201.369 -131.133
f 29/69/1 35/75/1 32/72/1

f 31/71/1 35/75/1 29/69/1

v 0.514774 3 3.33077
vt 20.2667 -131.133
f 31/71/1 36/76/1 35/75/1

f 36/76/1 31/71/1 33/73/1

usemtl BackColor
f 33/73/2 31/71/2 36/76/2

f 31/71/2 33/73/2 30/70/2

usemtl example_wall
vt -119.322 118.11
vn 1 0 2.88765e-15
v 0.814774 0 -2.96923
vt 116.899 0
vt 116.899 118.11
f 31/77/15 37/78/15 30/79/15

v 0.814774 0 3.03077
vt -119.322 0
f 37/78/15 31/77/15 38/80/15

usemtl BackColor
vn -1 -0 -2.88765e-15
f 38/80/16 31/77/16 37/78/16

usemtl example_wall
v 1.81477 1 3.03077
vt -71.4478 39.3701
vn 5.41434e-16 0 -1
vt -32.0777 0
vt -32.0777 118.11
f 39/81/17 38/82/17 31/83/17

v 4.81477 0 3.03077
vt -189.558 0
f 38/82/17 39/81/17 40/84/17

usemtl BackColor
vn -5.41434e-16 -0 1
f 40/84/18 39/81/18 38/82/18

usemtl example_wall
v 3.81477 1 3.03077
vt -150.188 39.3701
f 41/85/17 40/84/17 39/81/17

vt -189.558 118.11
f 40/84/17 41/85/17 29/86/17

usemtl BackColor
f 29/86/18 41/85/18 40/84/18

usemtl example_wall
v 3.81477 2 3.03077
vt -150.188 78.7402
f 29/86/17 41/85/17 42/87/17

usemtl BackColor
f 42/87/18 41/85/18 29/86/18

usemtl example_wall
v 3.81477 1 3.18077
vt 125.227 39.3701
vn -1 0 -3.85019e-14
vt 119.322 78.7402
vt 119.322 39.3701
f 43/88/19 42/89/19 41/90/19

v 3.81477 2 3.18077
vt 125.227 78.7402
f 42/89/19 43/88/19 44/91/19

usemtl BackColor
vn 1 -0 3.85019e-14
f 44/91/20 43/88/20 42/89/20

usemtl example_wall
v 3.81477 1 3.33077
vt 131.133 39.3701
f 45/92/19 44/91/19 43/88/19

v 3.81477 2 3.33077
vt 131.133 78.7402
f 44/91/19 45/92/19 46/93/19

usemtl BackColor
f 46/93/20 45/92/20 44/91/20

usemtl example_wall
vt 150.188 39.3701
vn 6.27749e-16 0 1
vt 201.369 118.11
vt 150.188 78.7402
f 45/94/21 35/95/21 46/96/21

v 5.11477 0 3.33077
vt 201.369 0
f 45/94/21 47/97/21 35/95/21

v 0.514774 0 3.33077
vt 20.2667 0
f 47/97/21 45/94/21 48/98/21

usemtl BackColor
vn -6.27749e-16 -0 -1
f 48/98/22 45/94/22 47/97/22

usemtl example_wall
v 1.81477 1 3.33077
vt 71.4478 39.3701
f 49/99/21 48/98/21 45/94/21

vt 20.2667 118.11
f 48/98/21 49/99/21 36/100/21

usemtl BackColor
f 36/100/22 49/99/22 48/98/22

usemtl example_wall
v 1.81477 2 3.33077
vt 71.4478 78.7402
f 36/100/21 49/99/21 50/101/21

usemtl BackColor
f 50/101/22 49/99/22 36/100/22

usemtl example_wall
v 1.81477 1 3.18077
vt -125.227 39.3701
vn 1 0 -7.70039e-14
vt -131.133 78.7402
vt -131.133 39.3701
f 51/102/23 50/103/23 49/104/23

v 1.81477 2 3.18077
vt -125.227 78.7402
f 50/103/23 51/102/23 52/105/23

usemtl BackColor
vn -1 -0 7.70039e-14
f 49/104/24 50/103/24 51/102/24

f 52/105/24 51/102/24 50/103/24

usemtl example_wall
vt -119.322 39.3701
vn 1 0 9.62549e-15
f 39/106/25 52/105/25 51/102/25

v 1.81477 2 3.03077
vt -119.322 78.7402
f 52/105/25 39/106/25 53/107/25

usemtl BackColor
vn -1 -0 -9.62549e-15
f 51/102/26 52/105/26 39/106/26

f 53/107/26 39/106/26 52/105/26

usemtl example_wall
vt -71.4478 78.7402
f 39/81/17 31/83/17 53/108/17

usemtl BackColor
f 31/83/18 38/82/18 39/81/18

f 53/108/18 31/83/18 39/81/18

usemtl example_wall
f 53/108/17 31/83/17 42/87/17

usemtl BackColor
f 42/87/18 31/83/18 53/108/18

usemtl example_wall
f 29/86/17 42/87/17 31/83/17

usemtl BackColor
f 31/83/18 42/87/18 29/86/18

f 29/69/2 35/75/2 31/71/2

f 32/72/2 35/75/2 29/69/2

usemtl example_wall
f 32/72/1 35/75/1 34/74/1

usemtl BackColor
f 34/74/2 35/75/2 32/72/2

usemtl example_wall
vt -131.133 118.11
vn 1 0 -8.75044e-16
v 5.11477 0 -3.26923
vt 128.71 0
vt 128.71 118.11
f 35/109/27 54/110/27 34/111/27

vt -131.133 0
f 54/110/27 35/109/27 47/112/27

usemtl BackColor
vn -1 -0 8.75044e-16
f 47/112/28 35/109/28 54/110/28

f 35/95/22 47/97/22 45/94/22

f 46/96/22 35/95/22 45/94/22

usemtl example_wall
f 46/96/21 35/95/21 50/101/21

usemtl BackColor
f 50/101/22 35/95/22 46/96/22

usemtl example_wall
f 36/100/21 50/101/21 35/95/21

usemtl BackColor
f 35/95/22 50/101/22 36/100/22

f 35/75/2 36/76/2 31/71/2

usemtl example_wall
vt -71.4478 -131.133
vt -150.188 -125.227
vt -150.188 -131.133
f 50/113/7 44/114/7 46/115/7

vt -71.4478 -125.227
f 44/114/7 50/113/7 52/116/7

usemtl BackColor
f 52/116/8 50/113/8 44/114/8

f 46/115/8 44/114/8 50/113/8

usemtl example_wall
vt -71.4478 -119.322
f 53/117/7 44/114/7 52/116/7

vt -150.188 -119.322
f 44/114/7 53/117/7 42/118/7

usemtl BackColor
f 52/116/8 44/114/8 53/117/8

f 42/118/8 53/117/8 44/114/8

f 34/111/28 54/110/28 35/109/28

usemtl example_wall
vt -201.369 0
vn -6.27749e-16 0 -1
vt -20.2667 118.11
vt -201.369 118.11
f 54/119/29 33/120/29 34/121/29

v 0.514774 0 -3.26923
vt -20.2667 0
f 33/120/29 54/119/29 55/122/29

usemtl BackColor
vn 6.27749e-16 -0 1
f 55/122/30 54/119/30 33/120/30

usemtl example_wall
vt -32.0777 116.899
vt -20.2667 128.71
vt -201.369 128.71
f 37/123/7 55/124/7 54/125/7

vt -32.0777 -119.322
f 55/124/7 37/123/7 38/126/7

usemtl BackColor
f 38/126/8 37/123/8 55/124/8

usemtl example_floor
f 40/69/1 37/70/1 38/71/1

v 4.81477 0 -2.96923
f 37/70/1 40/69/1 56/72/1

f 38/71/2 37/70/2 40/69/2

f 56/72/2 40/69/2 37/70/2

usemtl example_wall
vt -201.369 -131.133
vt -189.558 -119.322
vt -189.558 116.899
f 47/127/7 40/128/7 56/129/7

f 47/127/7 38/126/7 40/128/7

vt -20.2667 -131.133
f 48/130/7 38/126/7 47/127/7

f 38/126/7 48/130/7 55/124/7

usemtl BackColor
f 47/127/8 38/126/8 48/130/8

f 40/128/8 38/126/8 47/127/8

f 56/129/8 40/128/8 47/127/8

usemtl example_wall
vt 119.322 0
vn -1 0 -1.9251e-15
vt -116.899 118.11
vt -116.899 0
f 40/131/31 32/132/31 56/133/31

vt 119.322 118.11
f 32/132/31 40/131/31 29/134/31

usemtl BackColor
vn 1 -0 1.9251e-15
f 29/134/32 40/131/32 32/132/32

f 56/133/32 32/132/32 40/131/32

usemtl example_wall
vt 189.558 118.11
vn -7.21911e-16 0 1
vt 32.0777 0
vt 189.558 0
f 32/135/33 37/136/33 56/137/33

vt 32.0777 118.11
f 37/136/33 32/135/33 30/138/33

usemtl BackColor
vn 7.21911e-16 -0 -1
f 56/137/34 37/136/34 32/135/34

usemtl example_wall
f 37/123/7 54/125/7 56/129/7

usemtl BackColor
f 54/125/8 55/124/8 37/123/8

f 56/129/8 54/125/8 37/123/8

usemtl example_wall
f 47/127/7 56/129/7 54/125/7

usemtl BackColor
f 54/125/8 56/129/8 47/127/8

f 30/138/34 32/135/34 37/136/34

f 30/79/16 37/78/16 31/77/16

f 55/124/8 48/130/8 38/126/8

usemtl example_wall
vt 131.133 0
vn -1 0 -1.75009e-15
vt -128.71 118.11
vt -128.71 0
f 48/139/35 33/140/35 55/141/35

vt 131.133 118.11
f 33/140/35 48/139/35 36/142/35

usemtl BackColor
vn 1 -0 1.75009e-15
f 36/142/36 48/139/36 33/140/36

f 55/141/36 33/140/36 48/139/36

f 34/121/30 33/120/30 54/119/30

usemtl example_wall
vt 150.188 -125.227
vt 71.4478 -119.322
vt 71.4478 -125.227
f 43/143/1 39/144/1 51/145/1

vt 150.188 -119.322
f 39/144/1 43/143/1 41/146/1

usemtl BackColor
f 51/145/2 39/144/2 43/143/2

f 41/146/2 43/143/2 39/144/2

f 41/90/20 42/89/20 43/88/20

f 39/81/18 40/84/18 41/85/18

usemtl example_wall
vt 71.4478 -131.133
f 49/147/1 43/143/1 51/145/1

vt 150.188 -131.133
f 43/143/1 49/147/1 45/148/1

usemtl BackColor
f 51/145/2 43/143/2 49/147/2

f 45/148/2 49/147/2 43/143/2

f 45/94/22 48/98/22 49/99/22

f 43/88/20 44/91/20 45/92/20

g Mesh3 Model

usemtl _
v -1.36703 0.8 2.5
vt -53.8199 -98.4252
v -4.36703 0.8 -2.5
vt -171.93 98.4252
v -4.36703 0.8 2.5
vt -171.93 -98.4252
f 57/149/1 58/150/1 59/151/1

v -1.36703 0.8 -2.5
vt -53.8199 98.4252
f 58/150/1 57/149/1 60/152/1

f 59/151/2 58/150/2 57/149/2

f 60/152/2 57/149/2 58/150/2

g Mesh4 Model

v 4.31477 0.8 2.53077
vt 169.873 -99.6365
v 1.31477 0.8 -2.46923
vt 51.7627 97.2138
v 1.31477 0.8 2.53077
vt 51.7627 -99.6365
f 61/153/1 62/154/1 63/155/1

v 4.31477 0.8 -2.46923
vt 169.873 97.2138
f 62/154/1 61/153/1 64/156/1

f 63/155/2 62/154/2 61/153/2

f 64/156/2 61/153/2 62/154/2

